<svg width="536" height="159" viewBox="0 0 536 159" fill="none" xmlns="http://www.w3.org/2000/svg">
<path fill-rule="evenodd" clip-rule="evenodd" d="M290.933 24.2667L291.333 48.6667L295.067 49.0667L298.667 49.4667V24.8V0H294.667H290.667L290.933 24.2667ZM276 42.6667V21.3333V1.14658e-05H280H284V22.1333C284 34.8 283.467 45.3333 282.667 46.8C281.467 49.0667 279.733 49.3333 268.8 49.3333C258.133 49.3333 256.133 49.7333 254 52C248.267 58.2667 235.733 58.4 230 52C227.733 49.6 225.867 49.3333 208 49.3333H188.267L187.467 54C186.533 58.6667 183.6 61.4667 177.733 63.3333C175.067 64.1333 174.667 63.7334 174.667 60.1333C174.667 57.4667 175.333 56 176.667 56C179.733 56 181.333 47.2 181.333 30.2667V14.6667H184.667C187.863 14.6667 187.867 14.7997 188.265 28.2168L188.267 28.2667L188.667 42H206H223.333L224.133 36.6667C225.067 29.4667 227.333 25.7333 232.4 22.6667C244.267 15.3333 260 23.8667 260 37.6V42.6667H268H276ZM253.333 39.2C253.333 35.4667 249.2 29.2 245.867 28C242 26.4 241.6 26.4 237.733 28C236.133 28.6667 233.867 31.0667 232.667 33.4667C226.533 45.2 241.333 55.3333 249.867 45.2C251.733 42.9333 253.333 40.2667 253.333 39.2ZM181.6 1.59967C179.067 4.133 179.733 9.06633 182.667 9.99967C188.4 11.8663 191.867 4.133 186.8 1.333C185.052 0.38609 184.259 -0.0435288 183.573 0.08762C183.003 0.196541 182.507 0.692255 181.6 1.59967ZM134.4 1.46589C131.467 3.06589 131.333 7.06589 134.133 9.46589C138.267 12.9326 143.467 6.13255 140 1.99922C138.133 -0.267446 137.467 -0.400779 134.4 1.46589ZM359.733 36.5329C371.2 19.0662 391.2 5.46621 411.333 1.33287C427.467 -1.86713 448.8 1.46621 464.4 9.59954C475.733 15.4662 491.333 31.4662 496.933 42.6662C502 52.7995 505.333 64.7995 505.333 72.9329C505.333 78.2662 506.133 79.3329 517.6 91.5995C523.983 98.3579 530.366 105.234 532.558 107.596L532.933 108L535.867 111.333L518 110.933L500.133 110.533L494.667 119.2C480 142.4 453.333 157.333 426.667 157.333C399.333 157.2 373.6 142.8 358.667 119.2L353.2 110.533L336 110.933C319.2 111.333 318.933 111.333 321.067 108.8C321.839 107.855 324.879 104.534 328.725 100.33C330.852 98.0054 333.226 95.4109 335.6 92.7995L335.661 92.7329C347.867 79.4657 348 79.3213 348 72.3995C348 62.9329 353.6 46.1329 359.733 36.5329ZM425.333 30.6662V18.6662C425.333 8.13287 425.067 6.66621 423.067 6.66621C418.8 6.66621 402.8 20.7995 398.533 28.2662C397.333 30.5329 398.267 30.6662 411.333 30.6662H425.333ZM452.267 25.5995C447.6 19.8662 439.333 11.9995 434.667 8.79954C428.667 4.79954 428 5.86621 428 19.5995V30.6662H442.133H456.267L452.267 25.5995ZM398.667 23.3329C401.733 19.3329 406.533 14.2662 409.2 11.9995C414.933 7.33287 412.933 7.06621 401.733 11.1995C392.133 14.7995 382.133 20.9329 376.667 26.6662L372.8 30.6662H382.933H393.067L398.667 23.3329ZM476.667 26.6662C471.067 20.7995 461.067 14.7995 451.2 11.1995C446.4 9.46621 441.867 7.99954 441.067 7.99954C440.267 7.99954 442.267 10.6662 445.733 13.8662C449.067 17.0662 453.467 22.2662 455.467 25.1995L459.067 30.6662H469.733H480.533L476.667 26.6662ZM384.667 42.6662C387.067 42.6662 390.667 38.2662 390.667 35.3329C390.667 34.9329 386 34.6662 380.267 34.6662C368.267 34.6662 366.8 35.5995 360.8 47.5995C357.6 53.9995 352.8 70.6662 353.867 71.7329C354.267 72.1329 360.8 65.4662 375.333 49.5995C379.333 45.3329 382.8 42.6662 384.667 42.6662ZM424.8 57.3329C425.067 57.3329 425.333 52.2662 425.333 45.9995V34.6662H410H394.8L392.667 38.6662L390.533 42.6662H400.4H410.267L417.2 49.9995C421.067 53.9995 424.4 57.3329 424.8 57.3329ZM452.8 42.6662C461.6 42.6662 462.533 41.9995 460 37.1995C458.667 34.9329 457.067 34.6662 444.133 34.6662C436.267 34.6662 429.333 35.0662 428.933 35.5995C427.6 36.9329 427.867 57.3329 429.2 57.3329C429.733 57.3329 433.467 53.9995 437.2 49.9995L444.133 42.6662H452.8ZM498.8 70.6662C500.933 70.6662 496.933 56.9329 491.733 46.6662L486 35.3329L474.4 34.9329C462.267 34.5329 461.333 34.9329 464 40.1329C464.933 41.5995 466.8 42.6662 469.067 42.6662C471.867 42.6662 475.2 45.5995 485.333 56.6662C492.267 64.3995 498.267 70.6662 498.8 70.6662ZM426.533 64.6662L417.6 54.9329L408.667 45.3329H395.733H382.933L359.867 70.2662C347.2 84.1329 334.133 98.1329 330.8 101.6L324.8 108H341.467H358.267L374.8 89.1995L391.333 70.3995L394.667 74.3995C406.533 88.2662 425.867 109.333 426.8 109.333C427.467 109.333 435.6 100.533 444.933 89.8662L461.867 70.3995L472.667 82.2662C474.064 83.7902 475.566 85.4351 477.096 87.1092L477.097 87.1106L477.101 87.115L477.11 87.1242C481.999 92.4761 487.158 98.123 490 101.066L496.667 108.133L512.667 107.733L528.667 107.333L499.867 76.6662L471.2 45.9995L458.4 45.5995L445.467 45.1995L436 54.9329L426.533 64.6662ZM461.333 115.866C464.667 109.466 469.333 91.9995 469.333 85.9995C469.333 83.1995 468.133 80.6662 465.6 78.2662L462 74.7995L445.333 93.9995C433.2 108 428.533 114.4 428.267 117.333L427.867 121.333H443.2H458.667L461.333 115.866ZM425.333 117.2C425.333 113.733 422.4 109.733 409.067 94.6662C400 84.5329 392.267 76.1329 391.867 76.1329C391.467 75.9995 389.6 77.7329 387.6 79.7329C382 85.4662 383.2 96.6662 390.933 114.933L393.6 121.333H409.467H425.333V117.2ZM493.6 109.333L483.333 97.9995C477.733 91.7329 472.933 86.6662 472.667 86.6662C472.533 86.6662 471.6 90.2662 470.8 94.6662C469.467 101.6 466.4 111.333 463.333 118.933C462.533 121.066 463.467 121.333 474.133 121.333H486L489.867 115.333L493.6 109.333ZM390.4 121.333L387.333 113.6C385.6 109.466 383.333 101.866 382.4 96.7995L380.533 87.7329L370.933 98.3995C365.6 104.266 361.333 109.733 361.333 110.533C361.333 111.333 362.667 114.133 364.4 116.666L367.333 121.333H378.8H390.4ZM407.6 142.8C403.6 138.933 398.667 133.466 396.667 130.666L392.933 125.333H382.267H371.467L377.333 131.466C383.867 138 401.2 147.333 409.733 148.8L414.8 149.6L407.6 142.8ZM416.533 146.933C424.8 152.933 425.333 152.4 425.333 138V125.333H411.333C403.6 125.333 397.333 125.866 397.333 126.533C397.333 128.533 410.8 142.666 416.533 146.933ZM429.467 150.666C433.6 150.666 450.933 135.066 454.8 127.6C456 125.466 455.067 125.333 442.933 125.333C435.733 125.333 429.333 125.733 428.933 126.266C427.333 127.733 427.867 150.666 429.467 150.666ZM443.333 148.8C452.133 147.333 469.467 138.133 476 131.466L481.867 125.333H470.667L459.333 125.466L456 130.8C454.133 133.866 449.333 139.333 445.333 143.066L438 149.733L443.333 148.8ZM8.53332 16.1329C-1.60001 22.5329 -1.73335 40.5329 8.26665 46.6662C12.2667 49.0662 15.0667 49.3329 40.4 49.3329C55.6 49.3329 68 49.0662 68 48.7995C68 48.5329 65.3333 43.1995 62 36.9329C55.7333 25.1995 55.3333 21.3329 60.6667 21.3329C62.9333 21.3329 65.2 23.8662 70.6667 32.6662C70.8557 32.9762 71.0408 33.2801 71.2223 33.5782C75.0946 39.9355 77.336 43.6154 80.5928 45.7357C85.0691 48.65 91.4633 48.6182 106.646 48.5427C107.303 48.5394 107.976 48.5361 108.667 48.5329C121.867 48.3995 134.133 48.2662 136 48.1329C137.867 47.9995 142.133 48.2662 145.733 48.7995C150.133 49.3329 152.667 49.0662 154.267 47.8662C156 46.3995 156.533 46.3995 156.933 47.5995C157.333 48.5329 159.067 49.3329 160.8 49.3329H164V31.9995V14.6662H160.667C157.467 14.6662 157.333 14.9329 157.333 24.6662C157.333 30.1329 156.667 35.9995 155.867 37.7329C153.067 43.8662 144.133 45.4662 142 40.2662C141.467 39.0662 140.8 32.7995 140.4 26.2662C139.6 15.1995 139.467 14.6662 136.533 14.6662C133.467 14.6662 133.333 14.9329 133.333 26.5329C133.333 26.8886 133.334 27.2365 133.334 27.5767C133.339 34.1768 133.341 37.8918 131.5 39.9821C129.128 42.6738 123.699 42.6716 111.279 42.6667C110.733 42.6664 110.174 42.6662 109.6 42.6662C96.6667 42.6662 88.9333 41.9995 86.8 40.9329C84.9333 40.1329 80.6667 34.5329 77.0667 28.6662C73.6 22.7995 69.7333 17.1995 68.4 16.2662C65.2 13.9995 57.2 14.2662 53.6 16.7995C47.8667 20.7995 47.4667 24.7995 52 33.0662C54.1333 37.0662 56 40.9329 56 41.5995C56 43.0662 16.9333 42.9329 12.9333 41.4662C7.06665 39.1995 5.73332 28.5329 10.6667 23.3329C12.4 21.4662 13.3333 18.9329 13.0667 16.7995L12.6667 13.4662L8.53332 16.1329ZM33.8667 62.7999C29.7334 66.2665 24.5334 59.4665 28 55.3332C30 52.9332 30.1334 52.9332 33.4667 54.6665C36.5334 56.3999 36.8 60.3999 33.8667 62.7999ZM42.2666 54.7997C39.0666 56.6664 39.3333 62.2664 42.6666 63.3331C46 64.3997 49.3333 61.9997 49.3333 58.5331C49.3333 55.3331 45.3333 53.1997 42.2666 54.7997ZM145.6 63.0666C142.4 61.0666 142 57.2 144.667 55.2C149.733 51.4666 154.667 58.8 149.867 62.8C148.4 64 147.2 64.1333 145.6 63.0666ZM158 55.2C155.333 57.2 155.733 61.0666 158.933 63.0666C160.533 64.1333 161.733 64 163.2 62.8C168 58.8 163.067 51.4666 158 55.2ZM246.667 83.3329C242.533 83.3329 240.267 79.5996 242.533 76.7995C243.6 75.5995 245.333 74.6662 246.667 74.6662C248 74.6662 249.733 75.5995 250.8 76.7995C253.067 79.5996 250.8 83.3329 246.667 83.3329ZM291.2 77.9999C290.133 82.2665 292 84.3999 296.133 83.7332C298.667 83.4665 299.333 82.5332 299.333 79.3332C299.333 75.9999 298.8 75.1999 295.733 74.9332C292.8 74.5332 291.867 75.1999 291.2 77.9999ZM11.3334 102C16.2667 90.9329 20.8 80.6662 21.4667 78.9329C22.1334 77.3329 23.3334 75.9995 24.2667 75.9995C25.2 75.9995 30.2667 86.1329 35.6 98.3995C36.657 100.855 37.6211 103.088 38.4982 105.119L38.5032 105.131C45.1581 120.545 46.7906 124.327 45.8303 125.176C45.5182 125.452 44.9322 125.418 44.1557 125.373C43.8251 125.354 43.4599 125.333 43.0667 125.333C39.6 125.333 38.6667 124.4 35.8667 118.266L32.6667 111.333L24.4 110.933L16.2667 110.533L12.8 118C9.73338 124.666 9.06671 125.333 5.20004 125.333C2.40004 125.333 1.33338 124.8 1.73338 123.733C2.13338 122.8 6.40004 112.933 11.3334 102ZM24 104C26.2667 104 28 103.466 28 102.8C28 102.133 27.2 99.5995 26.1334 97.1995L24.2667 92.7995L22.1334 97.0662C19.2 102.933 19.4667 104 24 104ZM53.3334 100.666V125.333H56.6667H60V100.666V75.9995H56.6667H53.3334V100.666ZM82.7751 99.0385C84.1643 88.4047 85.3333 79.4566 85.3333 78.2662C85.3333 72.1329 89.4666 77.5996 96.5333 93.3329C100.933 102.933 104.8 110.933 105.2 111.333C105.733 111.6 109.6 103.733 114 93.8662C121.067 77.5996 125.2 71.8662 125.333 78.2662C125.333 79.4563 126.502 88.4011 127.891 99.0321L127.891 99.0344L127.891 99.0371L127.891 99.0376L127.908 99.1673C128.07 100.403 128.234 101.662 128.4 102.933L131.467 125.333H127.867C124 125.333 123.6 124.4 121.867 109.6C121.467 105.066 120.533 101.333 120.133 101.333C119.6 101.333 116.533 106.666 113.333 113.333C110.133 120 106.667 125.333 105.733 125.333C104.8 125.333 101.2 119.6 97.7333 112.666C94.2666 105.733 91.0666 99.9996 90.5333 99.9996C90.1333 99.9996 89.3333 103.866 88.7999 108.666C87.2 124 86.7999 125.333 82.7999 125.333H79.2L82.2666 102.933L82.5538 100.733L82.7183 99.4735L82.7217 99.4472L82.7648 99.1172L82.7659 99.109L82.7751 99.0385ZM136.267 104.133C136.667 118.4 136.8 119.067 140.4 122.133C144.533 125.6 151.6 126.4 156.4 123.867C158.533 122.667 159.333 122.667 159.733 123.867C160 124.667 161.733 125.333 163.467 125.333H166.667V107.333V89.3333H163.467C160.533 89.3333 160.4 89.8666 159.733 100.4C159.333 106.533 158.267 112.8 157.467 114.4C154.533 119.867 144.933 119.867 143.467 114.4C143.067 112.667 142.667 106.4 142.667 100.267C142.667 92.8035 142.667 90.4348 141.564 89.6829C141.051 89.3333 140.3 89.3333 139.2 89.3333H135.733L136.267 104.133ZM205.467 96.6662C207.733 94.1329 211.467 91.4662 213.867 90.7995C218.533 89.4662 225.067 90.1329 227.867 92.5329C229.333 93.5996 229.867 93.5996 230.267 92.2662C230.667 91.4662 232.4 90.6662 234.133 90.6662H237.333V108V125.333H231.733C228.533 125.2 223.467 125.6 220.533 126C204.933 128.533 194.8 108.8 205.467 96.6662ZM230.667 109.333C230.667 105.866 228.267 101.2 225.467 99.0662C219.067 94.1329 208.8 100.133 208.8 108.666C208.8 114.533 214 120 219.467 120C223.6 120 230.667 113.333 230.667 109.333ZM174.667 93.9995C174.667 97.0662 175.067 97.3329 181.333 97.3329C185.067 97.3329 188 97.7329 188 98.1329C188 98.6662 184.4 104.933 180 112.133L172.133 125.333H186C196.114 125.333 198.922 125.333 199.701 124.076C200 123.593 200 122.925 200 122C200 119.066 199.467 118.8 192.667 118.4L185.333 118L189.733 110.666C190.188 109.909 190.69 109.076 191.219 108.197C193.484 104.435 196.245 99.8515 197.867 96.9329L201.6 90.6662H188.133H174.667V93.9995ZM242.667 125.333V108V90.6662H246.667H250.667V108V125.333H246.667H242.667ZM256 107.999V125.333H259.2C262.267 125.333 262.4 124.933 262.8 114.133C263.333 101.599 265.733 97.3326 272 97.3326C277.733 97.3326 279.2 100.399 279.733 114.133C280.267 126.399 280.4 126.666 283.6 126.666H286.933L286.4 111.866C286 97.5992 285.867 96.9326 282.267 93.8659C278.133 90.2659 268.533 89.4659 265.467 92.2659C264 93.5992 263.6 93.5992 263.067 92.2659C262.667 91.4659 260.933 90.6659 259.2 90.6659H256V107.999ZM292 125.333V108V90.6662H295.333H298.667V108V125.333H295.333H292ZM50.6666 143.333C50.6666 148.267 51.2 152 52 152C52.8 152 53.3333 150.133 53.3333 148C53.3333 145.467 54.1333 143.6 55.4666 143.067C58 142.133 60 144.8 60 148.933C60 150.667 60.6666 152 61.3333 152C63.3333 152 62.9333 144.933 60.8 142C59.7333 140.4 58.1333 139.867 56.1333 140.4C53.8666 140.933 53.3333 140.533 53.3333 137.867C53.3333 136.133 52.8 134.667 52 134.667C51.2 134.667 50.6666 138.4 50.6666 143.333ZM0 152V144V136H5.33333C8.26667 136 10.6667 136.533 10.6667 137.333C10.6667 138 9.2 138.667 7.33333 138.667C5.2 138.667 4 139.467 4 140.667C4 141.867 5.33333 142.667 7.46667 142.667C9.33333 142.667 10.5333 143.2 10 144C9.6 144.667 8 145.333 6.53333 145.333C5.2 145.333 4 146.267 4 147.333C4 148.533 5.2 149.333 7.33333 149.333C9.2 149.333 10.6667 149.867 10.6667 150.667C10.6667 151.333 8.26667 152 5.33333 152H0ZM282.667 143.333V150.666H278C274 150.666 273.333 150.266 273.333 147.466C273.333 143.2 270.4 141.066 265.067 141.6C261.333 142 260.533 142.666 260 146L259.333 150H244H228.667L227.867 145.333L227.067 140.666L226.533 145.333C226 149.733 225.733 150 220.4 150.4L214.667 150.8V146.133C214.667 143.466 214.133 141.333 213.333 141.333C212.667 141.333 212 144.533 212 148.533C212 153.066 211.333 156 210.4 156.4C209.467 156.666 209.067 157.466 209.6 158C210.933 159.333 214.667 156.266 214.667 153.866C214.667 152.266 221.867 152 256.667 152H298.667V144C298.667 139.6 298.133 136 297.333 136C296.667 136 296 139.333 296 143.333V150.666H290.667H285.333V143.333C285.333 139.333 284.8 136 284 136C283.333 136 282.667 139.333 282.667 143.333ZM270.667 147.466C270.667 150.133 270 150.666 266.8 150.666C261.6 150.666 260.533 148.8 263.867 145.466C267.2 142.133 270.667 143.2 270.667 147.466ZM18.9334 144C18 142.533 17.3334 141.067 17.3334 140.667C17.3334 139.067 20 140.133 21.2 142.267C22.4 144.533 22.5334 144.533 23.3334 142.267C23.8667 141.067 25.2 140 26.2667 140C27.8667 140 27.8667 140.4 26.1334 142.933C24.2667 145.6 24.2667 146.133 26 148.933C27.7334 151.6 27.7334 152 26.1334 152C25.0667 152 24 151.2 23.6 150.267C23.0667 148.933 22.6667 148.933 21.2 150.267C20.2667 151.2 18.5334 152 17.4667 152C16 152 16.1334 151.467 18.1334 149.2C20.1334 147.067 20.2667 146 18.9334 144ZM34.9333 141.599C32.9333 143.599 32.9333 148.399 34.9333 150.399C36.8 152.266 44 152.533 44 150.799C44 149.999 42.4 149.599 40.4 149.733C37.2 149.999 36.6667 149.466 36.6667 146.666C36.6667 143.866 37.3334 143.333 40.4 143.333C42.4 143.466 44 142.666 44 141.733C44 139.599 37.0667 139.466 34.9333 141.599ZM70.4 150.266C68.9334 147.866 69.2001 143.333 70.8 141.733C71.7334 140.799 74.6667 140.266 77.4667 140.399C79.9817 140.464 81.2803 140.497 81.9508 141.163C82.6667 141.874 82.6667 143.306 82.6667 146.266C82.6667 151.599 82.4 151.999 79.0667 152.133C73.6 152.399 71.4667 151.866 70.4 150.266ZM72.5334 148.799C73.7334 152.133 78 150.533 78 146.666C78 144.533 77.2001 143.199 75.6 142.933C73.0667 142.399 71.3334 145.599 72.5334 148.799ZM89.3334 146C89.3334 150.4 89.8667 152 91.3334 152C92.8 152 93.3334 150.533 93.3334 147.2C93.3334 143.467 93.7334 142.533 95.7334 142.933C97.2 143.2 98.1334 144.8 98.4 147.733C98.9334 153.333 101.333 153.333 101.333 147.6C101.333 142 99.3334 140 93.7334 140C89.4667 140 89.3334 140.133 89.3334 146ZM109.6 150.399C107.6 148.399 107.6 143.599 109.6 141.599C110.4 140.799 113.467 140.133 116.267 140.266L121.333 140.399V147.333C121.333 151.866 120.667 154.933 119.467 155.866C117.2 157.866 110.4 157.333 109.733 155.199C109.467 154.399 110.8 153.999 113.2 154.399C115.333 154.666 117.467 154.266 117.867 153.466C118.533 152.533 117.467 151.999 115.067 151.999C112.933 151.999 110.533 151.333 109.6 150.399ZM111.6 147.733C113.733 151.066 116.667 150.399 117.067 146.533C117.6 142.399 114.4 140.533 111.867 143.466C110.667 144.933 110.533 146.133 111.6 147.733ZM129.6 141.6C127.067 144.133 127.733 149.066 131.067 151.2C134.133 153.333 140 152.666 140 150.4C140 149.6 139.067 149.467 137.867 149.866C135.067 150.933 130.4 149.467 131.333 147.866C131.867 147.2 133.867 146.666 136.133 146.666C138.4 146.666 140 146 140 144.933C140 142.4 137.2 140 134 140C132.4 140 130.533 140.666 129.6 141.6ZM136.667 144C136.267 144.666 135.067 145.333 134 145.333C132.933 145.333 131.733 144.666 131.333 144C130.8 143.2 132 142.666 134 142.666C136 142.666 137.2 143.2 136.667 144ZM172 147.6C172 145.067 172.4 142.667 172.933 142.267C173.333 141.733 175.733 141.333 178.267 141.333C182.4 141.333 182.667 141.6 182.667 146V150.667H190C196.8 150.667 197.333 150.4 197.333 147.6C197.333 143.733 199.733 141.333 203.6 141.333C206.267 141.333 206.667 142 206.667 146.667V152H189.333H172V147.6ZM174.667 148.667C177.467 152 180.267 151.067 179.733 147.067C179.2 142.8 177.067 141.733 174.667 144.667C173.333 146.267 173.333 147.067 174.667 148.667ZM202.667 150C203.733 150 204.8 148.667 205.067 146.933C205.467 144.667 204.8 144 202.667 144C200.533 144 199.867 144.667 200.267 146.933C200.533 148.667 201.6 150 202.667 150ZM224 156.133C224 156.8 224.667 157.066 225.333 156.666C226.133 156.266 226.667 155.6 226.667 155.2C226.667 154.933 226.133 154.666 225.333 154.666C224.667 154.666 224 155.333 224 156.133ZM229.333 156.666C228.667 157.066 228 156.8 228 156.133C228 155.333 228.667 154.666 229.333 154.666C230.133 154.666 230.667 154.933 230.667 155.2C230.667 155.6 230.133 156.266 229.333 156.666Z" fill="#E30B14"/>
</svg>
